<svg xmlns="http://www.w3.org/2000/svg" width="16" height="16" viewBox="0 0 16 16">
    <path fill="#21409a" fill-rule="evenodd" d="M15.595 13.86l-3.288-3.288a6.564 6.564 0 0 0 1.19-3.824 6.63 6.63 0 0 0-.533-2.622 6.745 6.745 0 0 0-1.438-2.156A6.745 6.745 0 0 0 9.37.532 6.632 6.632 0 0 0 6.748 0a6.63 6.63 0 0 0-2.622.532A6.745 6.745 0 0 0 1.97 1.97 6.746 6.746 0 0 0 .532 4.126 6.63 6.63 0 0 0 0 6.748c0 .914.177 1.787.532 2.622a6.745 6.745 0 0 0 1.438 2.156 6.747 6.747 0 0 0 2.156 1.438 6.63 6.63 0 0 0 2.622.532c1.406 0 2.68-.396 3.825-1.189l3.287 3.278c.23.243.518.364.863.364.332 0 .62-.121.862-.364.243-.243.365-.53.365-.862 0-.339-.118-.627-.355-.863zM9.782 9.782c-.84.84-1.852 1.26-3.034 1.26-1.182 0-2.193-.42-3.034-1.26-.84-.84-1.26-1.852-1.26-3.034 0-1.182.42-2.194 1.26-3.034.84-.84 1.852-1.26 3.034-1.26 1.182 0 2.193.42 3.034 1.26.84.84 1.26 1.852 1.26 3.034 0 1.182-.42 2.193-1.26 3.034z"/>
</svg>
